<svg id="Capa_1" enable-background="new 0 0 512 512" height="512" viewBox="0 0 512 512" width="512" xmlns="http://www.w3.org/2000/svg"><g><path d="m386.834 381.167c69.016 0 125.166-56.15 125.166-125.167s-56.15-125.167-125.166-125.167c-29.411 0-64.605 17.22-107.592 52.644-.21.173-.415.345-.624.518l51.87 52.108c39.667-31.729 55.663-32.112 56.346-32.112 28.677 0 52.008 23.33 52.008 52.008s-23.33 52.008-52.008 52.008c-.712 0-17.944-.408-61.067-35.943-4.986-4.109-85.921-82.747-93.008-88.587-42.987-35.424-78.181-52.644-107.592-52.644-69.017 0-125.167 56.15-125.167 125.167s56.15 125.166 125.166 125.166c29.411 0 64.605-17.22 107.592-52.644.195-.161.386-.321.58-.482l-51.706-52.243c-39.745 31.818-55.78 32.211-56.466 32.211-28.677 0-52.008-23.33-52.008-52.008s23.33-52.008 52.008-52.008c.706 0 19.759-1.866 60.507 35.483 20.787 19.053 88.391 85.07 93.568 89.048 44.173 33.935 78.182 52.644 107.593 52.644z"/></g></svg>